{"title":"The Bridge aka Die BrÃƒÂ¼cke 2008 XviD.Swe_Sub.avi","uid":5433316,"size":918668634,"categoryP":"video","categoryS":"movies","magnet":"?xt=urn:btih:4fbcfe3be96914a9f1fd2ea9b2a97ca7bf140e12&amp;dn=The+Bridge+aka+Die+Br%C3%83%C2%BCcke+2008+XviD.Swe_Sub.avi&amp;tr=udp%3A%2F%2Ftracker.openbittorrent.com%3A80&amp;tr=udp%3A%2F%2Fopen.demonii.com%3A1337&amp;tr=udp%3A%2F%2Ftracker.coppersurfer.tk%3A6969&amp;tr=udp%3A%2F%2Fexodus.desync.com%3A6969","seeders":0,"leechers":1,"uploader":"Zen_Bud","files":-1,"time":1268502779,"description":"General\nComplete name                    : The Bridge.Swe_Sub.avi\nFormat                           : AVI\nFormat/Info                      : Audio Video Interleave\nFile size                        : 876 MiB\nDuration                         : 1h 36mn\nOverall bit rate                 : 1 271 Kbps\n\nVideo\nID                               : 0\nFormat                           : MPEG-4 Visual\nCodec ID/Hint                    : XviD\nDuration                         : 1h 36mn\nBit rate                         : 1 130 Kbps\nWidth                            : 718 pixels\nHeight                           : 572 pixels\nDisplay aspect ratio             : 16:9\nFrame rate                       : 25.000 fps\nResolution                       : 8 bits\nColorimetry                      : 4:2:0\nScan type                        : Progressive\nBits/(Pixel*Frame)               : 0.110\nStream size                      : 779 MiB (89%)\nWriting library                  : XviD 1.1.2 (UTC 2006-11-01)\n\nAudio\nID                               : 1\nFormat                           : MPEG Audio\nFormat version                   : Version 1\nFormat profile                   : Layer 3\nMode                             : Joint stereo / MS Stereo\nCodec ID                         : 55\nCodec ID/Hint                    : MP3\nDuration                         : 1h 36mn\nBit rate mode                    : Constant\nBit rate                         : 128 Kbps\nChannel(s)                       : 2 channels\nSampling rate                    : 48.0 KHz\nStream size                      : 88.2 MiB (10%)\nAlignment                        : Split accross interleaves\nInterleave, duration             : 24 ms (0.60 video frame)\n\nLanguage                         : German\n","torrent":{"xt":"urn:btih:4fbcfe3be96914a9f1fd2ea9b2a97ca7bf140e12","amp;dn":"The+Bridge+aka+Die+Br%C3%83%C2%BCcke+2008+XviD.Swe_Sub.avi","amp;tr":["udp%3A%2F%2Ftracker.openbittorrent.com%3A80","udp%3A%2F%2Fopen.demonii.com%3A1337","udp%3A%2F%2Ftracker.coppersurfer.tk%3A6969","udp%3A%2F%2Fexodus.desync.com%3A6969"],"infoHash":"4fbcfe3be96914a9f1fd2ea9b2a97ca7bf140e12","infoHashBuffer":{"type":"Buffer","data":[79,188,254,59,233,105,20,169,241,253,46,169,178,169,124,167,191,20,14,18]},"announce":[],"urlList":[]}}